<?xml version="1.0" standalone="no"?>
<!DOCTYPE svg PUBLIC "-//W3C//DTD SVG 20010904//EN"
 "http://www.w3.org/TR/2001/REC-SVG-20010904/DTD/svg10.dtd">
<svg version="1.0" xmlns="http://www.w3.org/2000/svg"
 width="143.000000pt" height="143.000000pt" viewBox="0 0 143.000000 143.000000"
 preserveAspectRatio="xMidYMid meet">
<metadata>
Created by potrace 1.11, written by Peter Selinger 2001-2013
</metadata>
<g transform="translate(0.000000,143.000000) scale(0.100000,-0.100000)"
fill="#000000" stroke="none">
<path d="M418 1092 c-34 -2 -49 -8 -52 -20 -3 -9 -6 -65 -7 -124 -2 -106 -2
-106 -28 -111 -14 -3 -29 -3 -33 -1 -13 8 -27 109 -24 170 l3 60 -133 0 c-156
-1 -144 11 -143 -146 0 -119 6 -155 43 -257 16 -45 30 -116 38 -188 10 -97 15
-116 31 -121 20 -6 131 -6 162 0 11 3 34 5 51 5 l31 1 -1 124 -1 124 32 4 c23
3 34 -1 37 -12 9 -29 17 -85 20 -147 2 -34 6 -65 9 -70 3 -4 34 -6 69 -3 34 3
90 2 122 -3 33 -4 61 -5 63 -3 9 8 9 221 1 273 -5 30 -25 104 -45 165 -28 88
-36 127 -37 194 l-1 83 -35 6 c-19 3 -55 4 -80 3 -25 -2 -66 -4 -92 -6z"/>
<path d="M1020 1084 c-41 -11 -86 -13 -176 -9 -106 5 -122 4 -128 -10 -10 -28
-7 -278 5 -320 6 -22 24 -70 40 -106 23 -54 29 -83 33 -168 2 -56 6 -104 9
-107 23 -23 200 -18 365 11 138 24 218 51 243 81 12 15 20 183 11 231 -2 12
-19 40 -38 62 -33 38 -34 44 -37 128 -4 98 -19 139 -66 172 -67 48 -163 61
-261 35z m35 -244 c-3 -5 -17 -10 -31 -10 -13 0 -24 5 -24 10 0 6 14 10 31 10
17 0 28 -4 24 -10z m65 -240 c-20 -13 -50 -13 -50 0 0 6 15 10 33 10 24 0 28
-3 17 -10z"/>
</g>
</svg>
