<svg xmlns="http://www.w3.org/2000/svg" viewBox="0 0 213.44 101.68"><defs><style>.cls-1{fill:#fff;stroke:#202020;stroke-miterlimit:10;stroke-width:0.5px;}</style></defs><title>Asset 9</title><g id="Layer_2" data-name="Layer 2"><g id="Layer_3" data-name="Layer 3"><path class="cls-1" d="M59.66,52.5l.69,2q.46,1.36,1.14,3.49a80.38,80.38,0,0,0-15.92-1.79H44.29l-1.4,0a17.46,17.46,0,0,0,.9,3,27.38,27.38,0,0,0,1.61,3.35,45.42,45.42,0,0,0,2.94,4.51q1.77,2.43,4.14,5.2.79.89,1.89,2.21L57,77.67q1.84,2.43,3.57,5.11T64,88.56a38.15,38.15,0,0,1,3.92,9.32q-9.76.17-12.73,1a10.32,10.32,0,0,0-1.42.51,31.28,31.28,0,0,1-9.16,2,24.59,24.59,0,0,0-3.35-9.93,61.35,61.35,0,0,0-4-6.15q-.6-.92-1.62-2.23L33.26,80q-.85-.83-2-2.05l-2.76-2.85a46.86,46.86,0,0,1-7-9.26A19.86,19.86,0,0,1,19.22,60l-.44,0H17.69a93.22,93.22,0,0,1-17-2.15,13.47,13.47,0,0,1-.28-5.26A75.28,75.28,0,0,0,14.19,54a59.47,59.47,0,0,0,10-.75q.74-.14,2.55-.61t4.67-1.27a38.81,38.81,0,0,1,10.89-1.13A80.91,80.91,0,0,1,59.66,52.5Z"/><path class="cls-1" d="M147.81,85.66q.33.56.57,1t.42.84q2.14,4.61-7.91,6.67-2.48.5-4.7,1.05l-4.38,1.11q-1.77.48-3.22.93t-2.6.9q-.39.17-1,.39l-1.42.54a31.82,31.82,0,0,1-8.16.76,42.53,42.53,0,0,1-15.59-2.75q-7.41-2.9-10.21-7.81-.13-.23-.36-.68t-.48-1q-.24-.51-.49-1l-.37-.7a34,34,0,0,0-2.27-3.38q-1.44-1.93-3.54-4.43-5.76-6.88-6.51-7.87a25.11,25.11,0,0,1-1.79-2.64q-.31-.54-.68-1.36t-.86-2q-1.18-2.92.61-4.61,1.46-1.4,5.93-2.58,2.49-.69,6.15-1.6t8.79-2.08L95,53.18l1.69-.32a33.79,33.79,0,0,1,8-1.34,33.34,33.34,0,0,1,15.06,3.82,25.63,25.63,0,0,1,9.71,8.08q1.09,1.69,2.26,3.18t2.41,2.84l3.74,4,3.74,4q2.09,2.39,3.66,4.42A37,37,0,0,1,147.81,85.66Zm-25.27-1.19q-2.12-3.64-8.57-10.39t-8.52-10.43q-.31-.54-.79-1.61-.21-.54-.4-.93t-.34-.68q-1-1.67-4.11-1.69A5.51,5.51,0,0,0,96,59.92a2.31,2.31,0,0,0-.8,2.61q.31.88.73,1.77t.94,1.8a34.66,34.66,0,0,0,3.1,4.33q2.07,2.55,5.26,6t5.27,6a34.62,34.62,0,0,1,3.11,4.33,7.36,7.36,0,0,1,.44,1q.25.64.53,1.34t.52,1.33a7,7,0,0,0,.43,1,3.54,3.54,0,0,0,1.65,1.3,5.82,5.82,0,0,0,2.45.57,5.46,5.46,0,0,0,4.13-1.94Q125.48,89.51,122.54,84.46Z"/><path class="cls-1" d="M212.41,75.66q1.83,3-.63,4.73a8.79,8.79,0,0,1-3.29,1.12q-2.87.55-5,.93t-3.85.57q-1.62.13-3.89.42l-5.38.69-4.58.85.89,1.4a51.58,51.58,0,0,1,3.12,5.89q1.48,3.27,2.94,7.37a72.29,72.29,0,0,1-10.82.75,123.88,123.88,0,0,1-14.36-.93l-1.63-2.94q-1-1.82-2.38-4.46-1.26-2.44-2.27-4.26t-1.81-3.17q-.38-.64-.83-1.36l-1-1.53q-.95-1.43-2.77-3.67t-4.56-5.39q-2.59-3-4.36-5.22a37.33,37.33,0,0,1-2.73-3.87q-3.33-5.61-3.07-10a94.22,94.22,0,0,0,10,.58q5,0,19.57-.84,1.43-.1,2.71-.13t2.39,0a52.09,52.09,0,0,1,14.79,2.2,28.44,28.44,0,0,1,11.86,6.56,25.29,25.29,0,0,1,2.78,3.59q1.87,3,2.35,3.58a31.49,31.49,0,0,0,3.83,4.34A11.16,11.16,0,0,1,212.41,75.66Zm-23.84.42a3.18,3.18,0,0,0-.52-.61q-2.24-2.18-3.86-3.85a40.07,40.07,0,0,1-2.67-3q-.79-1-1.52-2t-1.47-2.26l-.34-.56q-.22-.36-.46-.84t-.44-.81l-.35-.59a4.87,4.87,0,0,0-2.09-1.69,7.15,7.15,0,0,0-3.15-.76,25.85,25.85,0,0,0-2.78.17l-1.81.2-1,.09a17.72,17.72,0,0,0,.94,2.36q.57,1.19,1.33,2.44a48.55,48.55,0,0,0,4.87,6.44q3.24,3.73,8.21,8.6,1-.11,2.27-.33a26.8,26.8,0,0,0,3.86-.82Q189.45,77.53,188.57,76.08Z"/><path class="cls-1" d="M59.66,47.5l.69,2q.46,1.36,1.14,3.49a80.38,80.38,0,0,0-15.92-1.79H44.29l-1.4,0a17.46,17.46,0,0,0,.9,3,27.38,27.38,0,0,0,1.61,3.35,45.42,45.42,0,0,0,2.94,4.51q1.77,2.43,4.14,5.2.79.89,1.89,2.21L57,72.67q1.84,2.43,3.57,5.11T64,83.56a38.15,38.15,0,0,1,3.92,9.32q-9.76.17-12.73,1a10.32,10.32,0,0,0-1.42.51,31.28,31.28,0,0,1-9.16,2,24.59,24.59,0,0,0-3.35-9.93,61.35,61.35,0,0,0-4-6.15q-.6-.92-1.62-2.23L33.26,75q-.85-.83-2-2.05l-2.76-2.85a46.86,46.86,0,0,1-7-9.26A19.86,19.86,0,0,1,19.22,55l-.44,0H17.69a93.22,93.22,0,0,1-17-2.15,13.47,13.47,0,0,1-.28-5.26A75.28,75.28,0,0,0,14.19,49a59.47,59.47,0,0,0,10-.75q.74-.14,2.55-.61t4.67-1.27a38.81,38.81,0,0,1,10.89-1.13A80.91,80.91,0,0,1,59.66,47.5Z"/><path class="cls-1" d="M147.81,80.66q.33.56.57,1t.42.84q2.14,4.61-7.91,6.67-2.48.5-4.7,1.05l-4.38,1.11q-1.77.48-3.22.93t-2.6.9q-.39.17-1,.39l-1.42.54a31.82,31.82,0,0,1-8.16.76,42.53,42.53,0,0,1-15.59-2.75q-7.41-2.9-10.21-7.81-.13-.23-.36-.68t-.48-1q-.24-.51-.49-1l-.37-.7a34,34,0,0,0-2.27-3.38q-1.44-1.93-3.54-4.43-5.76-6.88-6.51-7.87a25.11,25.11,0,0,1-1.79-2.64q-.31-.54-.68-1.36t-.86-2q-1.18-2.92.61-4.61,1.46-1.4,5.93-2.58,2.49-.69,6.15-1.6t8.79-2.08L95,48.18l1.69-.32a33.79,33.79,0,0,1,8-1.34,33.34,33.34,0,0,1,15.06,3.82,25.63,25.63,0,0,1,9.71,8.08q1.09,1.69,2.26,3.18t2.41,2.84l3.74,4,3.74,4q2.09,2.39,3.66,4.42A37,37,0,0,1,147.81,80.66Zm-25.27-1.19q-2.12-3.64-8.57-10.39t-8.52-10.43q-.31-.54-.79-1.61-.21-.54-.4-.93t-.34-.68q-1-1.67-4.11-1.69A5.51,5.51,0,0,0,96,54.92a2.31,2.31,0,0,0-.8,2.61q.31.88.73,1.77t.94,1.8a34.66,34.66,0,0,0,3.1,4.33q2.07,2.55,5.26,6t5.27,6a34.62,34.62,0,0,1,3.11,4.33,7.36,7.36,0,0,1,.44,1q.25.64.53,1.34t.52,1.33a7,7,0,0,0,.43,1,3.54,3.54,0,0,0,1.65,1.3,5.82,5.82,0,0,0,2.45.57,5.46,5.46,0,0,0,4.13-1.94Q125.48,84.51,122.54,79.46Z"/><path class="cls-1" d="M212.41,70.66q1.83,3-.63,4.73a8.79,8.79,0,0,1-3.29,1.12q-2.87.55-5,.93t-3.85.57q-1.62.13-3.89.42l-5.38.69-4.58.85.89,1.4a51.58,51.58,0,0,1,3.12,5.89q1.48,3.27,2.94,7.37a72.29,72.29,0,0,1-10.82.75,123.88,123.88,0,0,1-14.36-.93l-1.63-2.94q-1-1.82-2.38-4.46-1.26-2.44-2.27-4.26t-1.81-3.17q-.38-.64-.83-1.36l-1-1.53q-.95-1.43-2.77-3.67t-4.56-5.39q-2.59-3-4.36-5.22a37.33,37.33,0,0,1-2.73-3.87q-3.33-5.61-3.07-10a94.22,94.22,0,0,0,10,.58q5,0,19.57-.84,1.43-.1,2.71-.13t2.39,0a52.09,52.09,0,0,1,14.79,2.2,28.44,28.44,0,0,1,11.86,6.56,25.29,25.29,0,0,1,2.78,3.59q1.87,3,2.35,3.58a31.49,31.49,0,0,0,3.83,4.34A11.16,11.16,0,0,1,212.41,70.66Zm-23.84.42a3.18,3.18,0,0,0-.52-.61q-2.24-2.18-3.86-3.85a40.07,40.07,0,0,1-2.67-3q-.79-1-1.52-2t-1.47-2.26l-.34-.56q-.22-.36-.46-.84t-.44-.81l-.35-.59a4.87,4.87,0,0,0-2.09-1.69,7.15,7.15,0,0,0-3.15-.76,25.85,25.85,0,0,0-2.78.17l-1.81.2-1,.09a17.72,17.72,0,0,0,.94,2.36q.57,1.19,1.33,2.44a48.55,48.55,0,0,0,4.87,6.44q3.24,3.73,8.21,8.6,1-.11,2.27-.33a26.8,26.8,0,0,0,3.86-.82Q189.45,72.53,188.57,71.08Z"/><path class="cls-1" d="M59.66,42.5l.69,2q.46,1.36,1.14,3.49a80.38,80.38,0,0,0-15.92-1.79H44.29l-1.4,0a17.46,17.46,0,0,0,.9,3,27.38,27.38,0,0,0,1.61,3.35,45.42,45.42,0,0,0,2.94,4.51q1.77,2.43,4.14,5.2.79.89,1.89,2.21L57,67.67q1.84,2.43,3.57,5.11T64,78.56a38.15,38.15,0,0,1,3.92,9.32q-9.76.17-12.73,1a10.32,10.32,0,0,0-1.42.51,31.28,31.28,0,0,1-9.16,2,24.59,24.59,0,0,0-3.35-9.93,61.35,61.35,0,0,0-4-6.15q-.6-.92-1.62-2.23L33.26,70q-.85-.83-2-2.05l-2.76-2.85a46.86,46.86,0,0,1-7-9.26A19.86,19.86,0,0,1,19.22,50l-.44,0H17.69a93.22,93.22,0,0,1-17-2.15,13.47,13.47,0,0,1-.28-5.26A75.28,75.28,0,0,0,14.19,44a59.47,59.47,0,0,0,10-.75q.74-.14,2.55-.61t4.67-1.27a38.81,38.81,0,0,1,10.89-1.13A80.91,80.91,0,0,1,59.66,42.5Z"/><path class="cls-1" d="M147.81,75.66q.33.56.57,1t.42.84q2.14,4.61-7.91,6.67-2.48.5-4.7,1.05l-4.38,1.11q-1.77.48-3.22.93t-2.6.9q-.39.17-1,.39l-1.42.54a31.82,31.82,0,0,1-8.16.76,42.53,42.53,0,0,1-15.59-2.75q-7.41-2.9-10.21-7.81-.13-.23-.36-.68t-.48-1q-.24-.51-.49-1l-.37-.7a34,34,0,0,0-2.27-3.38q-1.44-1.93-3.54-4.43-5.76-6.88-6.51-7.87a25.11,25.11,0,0,1-1.79-2.64q-.31-.54-.68-1.36t-.86-2q-1.18-2.92.61-4.61,1.46-1.4,5.93-2.58,2.49-.69,6.15-1.6t8.79-2.08L95,43.18l1.69-.32a33.79,33.79,0,0,1,8-1.34,33.34,33.34,0,0,1,15.06,3.82,25.63,25.63,0,0,1,9.71,8.08q1.09,1.69,2.26,3.18t2.41,2.84l3.74,4,3.74,4q2.09,2.39,3.66,4.42A37,37,0,0,1,147.81,75.66Zm-25.27-1.19q-2.12-3.64-8.57-10.39t-8.52-10.43q-.31-.54-.79-1.61-.21-.54-.4-.93t-.34-.68q-1-1.67-4.11-1.69A5.51,5.51,0,0,0,96,49.92a2.31,2.31,0,0,0-.8,2.61q.31.88.73,1.77t.94,1.8a34.66,34.66,0,0,0,3.1,4.33q2.07,2.55,5.26,6t5.27,6a34.62,34.62,0,0,1,3.11,4.33,7.36,7.36,0,0,1,.44,1q.25.64.53,1.34t.52,1.33a7,7,0,0,0,.43,1,3.54,3.54,0,0,0,1.65,1.3,5.82,5.82,0,0,0,2.45.57,5.46,5.46,0,0,0,4.13-1.94Q125.48,79.51,122.54,74.46Z"/><path class="cls-1" d="M212.41,65.66q1.83,3-.63,4.73a8.79,8.79,0,0,1-3.29,1.12q-2.87.55-5,.93t-3.85.57q-1.62.13-3.89.42l-5.38.69-4.58.85.89,1.4a51.58,51.58,0,0,1,3.12,5.89q1.48,3.27,2.94,7.37a72.29,72.29,0,0,1-10.82.75,123.88,123.88,0,0,1-14.36-.93l-1.63-2.94q-1-1.82-2.38-4.46-1.26-2.44-2.27-4.26t-1.81-3.17q-.38-.64-.83-1.36l-1-1.53q-.95-1.43-2.77-3.67t-4.56-5.39q-2.59-3-4.36-5.22a37.33,37.33,0,0,1-2.73-3.87q-3.33-5.61-3.07-10a94.22,94.22,0,0,0,10,.58q5,0,19.57-.84,1.43-.1,2.71-.13t2.39,0a52.09,52.09,0,0,1,14.79,2.2,28.44,28.44,0,0,1,11.86,6.56,25.29,25.29,0,0,1,2.78,3.59q1.87,3,2.35,3.58a31.49,31.49,0,0,0,3.83,4.34A11.16,11.16,0,0,1,212.41,65.66Zm-23.84.42a3.18,3.18,0,0,0-.52-.61q-2.24-2.18-3.86-3.85a40.07,40.07,0,0,1-2.67-3q-.79-1-1.52-2t-1.47-2.26l-.34-.56q-.22-.36-.46-.84t-.44-.81l-.35-.59a4.87,4.87,0,0,0-2.09-1.69,7.15,7.15,0,0,0-3.15-.76,25.85,25.85,0,0,0-2.78.17l-1.81.2-1,.09a17.72,17.72,0,0,0,.94,2.36q.57,1.19,1.33,2.44a48.55,48.55,0,0,0,4.87,6.44q3.24,3.73,8.21,8.6,1-.11,2.27-.33a26.8,26.8,0,0,0,3.86-.82Q189.45,67.53,188.57,66.08Z"/><path class="cls-1" d="M59.66,37.5l.69,2q.46,1.36,1.14,3.49a80.38,80.38,0,0,0-15.92-1.79H44.29l-1.4,0a17.46,17.46,0,0,0,.9,3,27.38,27.38,0,0,0,1.61,3.35,45.42,45.42,0,0,0,2.94,4.51q1.77,2.43,4.14,5.2.79.89,1.89,2.21L57,62.67q1.84,2.43,3.57,5.11T64,73.56a38.15,38.15,0,0,1,3.92,9.32q-9.76.17-12.73,1a10.32,10.32,0,0,0-1.42.51,31.28,31.28,0,0,1-9.16,2,24.59,24.59,0,0,0-3.35-9.93,61.35,61.35,0,0,0-4-6.15q-.6-.92-1.62-2.23L33.26,65q-.85-.83-2-2.05l-2.76-2.85a46.86,46.86,0,0,1-7-9.26A19.86,19.86,0,0,1,19.22,45l-.44,0H17.69a93.22,93.22,0,0,1-17-2.15,13.47,13.47,0,0,1-.28-5.26A75.28,75.28,0,0,0,14.19,39a59.47,59.47,0,0,0,10-.75q.74-.14,2.55-.61t4.67-1.27a38.81,38.81,0,0,1,10.89-1.13A80.91,80.91,0,0,1,59.66,37.5Z"/><path class="cls-1" d="M147.81,70.66q.33.56.57,1t.42.84q2.14,4.61-7.91,6.67-2.48.5-4.7,1.05l-4.38,1.11q-1.77.48-3.22.93t-2.6.9q-.39.17-1,.39l-1.42.54a31.82,31.82,0,0,1-8.16.76,42.53,42.53,0,0,1-15.59-2.75q-7.41-2.9-10.21-7.81-.13-.23-.36-.68t-.48-1q-.24-.51-.49-1l-.37-.7a34,34,0,0,0-2.27-3.38q-1.44-1.93-3.54-4.43-5.76-6.88-6.51-7.87a25.11,25.11,0,0,1-1.79-2.64q-.31-.54-.68-1.36t-.86-2q-1.18-2.92.61-4.61,1.46-1.4,5.93-2.58,2.49-.69,6.15-1.6t8.79-2.08L95,38.18l1.69-.32a33.79,33.79,0,0,1,8-1.34,33.34,33.34,0,0,1,15.06,3.82,25.63,25.63,0,0,1,9.71,8.08q1.09,1.69,2.26,3.18t2.41,2.84l3.74,4,3.74,4q2.09,2.39,3.66,4.42A37,37,0,0,1,147.81,70.66Zm-25.27-1.19q-2.12-3.64-8.57-10.39t-8.52-10.43q-.31-.54-.79-1.61-.21-.54-.4-.93t-.34-.68q-1-1.67-4.11-1.69A5.51,5.51,0,0,0,96,44.92a2.31,2.31,0,0,0-.8,2.61q.31.88.73,1.77t.94,1.8a34.66,34.66,0,0,0,3.1,4.33q2.07,2.55,5.26,6t5.27,6a34.62,34.62,0,0,1,3.11,4.33,7.36,7.36,0,0,1,.44,1q.25.64.53,1.34t.52,1.33a7,7,0,0,0,.43,1,3.54,3.54,0,0,0,1.65,1.3,5.82,5.82,0,0,0,2.45.57,5.46,5.46,0,0,0,4.13-1.94Q125.48,74.51,122.54,69.46Z"/><path class="cls-1" d="M212.41,60.66q1.83,3-.63,4.73a8.79,8.79,0,0,1-3.29,1.12q-2.87.55-5,.93t-3.85.57q-1.62.13-3.89.42l-5.38.69-4.58.85.89,1.4a51.58,51.58,0,0,1,3.12,5.89q1.48,3.27,2.94,7.37a72.29,72.29,0,0,1-10.82.75,123.88,123.88,0,0,1-14.36-.93l-1.63-2.94q-1-1.82-2.38-4.46-1.26-2.44-2.27-4.26t-1.81-3.17q-.38-.64-.83-1.36l-1-1.53q-.95-1.43-2.77-3.67t-4.56-5.39q-2.59-3-4.36-5.22a37.33,37.33,0,0,1-2.73-3.87q-3.33-5.61-3.07-10a94.22,94.22,0,0,0,10,.58q5,0,19.57-.84,1.43-.1,2.71-.13t2.39,0a52.09,52.09,0,0,1,14.79,2.2,28.44,28.44,0,0,1,11.86,6.56,25.29,25.29,0,0,1,2.78,3.59q1.87,3,2.35,3.58a31.49,31.49,0,0,0,3.83,4.34A11.16,11.16,0,0,1,212.41,60.66Zm-23.84.42a3.18,3.18,0,0,0-.52-.61q-2.24-2.18-3.86-3.85a40.07,40.07,0,0,1-2.67-3q-.79-1-1.52-2t-1.47-2.26l-.34-.56q-.22-.36-.46-.84t-.44-.81l-.35-.59a4.87,4.87,0,0,0-2.09-1.69,7.15,7.15,0,0,0-3.15-.76,25.85,25.85,0,0,0-2.78.17l-1.81.2-1,.09a17.72,17.72,0,0,0,.94,2.36q.57,1.19,1.33,2.44a48.55,48.55,0,0,0,4.87,6.44q3.24,3.73,8.21,8.6,1-.11,2.27-.33a26.8,26.8,0,0,0,3.86-.82Q189.45,62.53,188.57,61.08Z"/><path class="cls-1" d="M59.66,32.5l.69,2q.46,1.36,1.14,3.49a80.38,80.38,0,0,0-15.92-1.79H44.29l-1.4,0a17.46,17.46,0,0,0,.9,3,27.38,27.38,0,0,0,1.61,3.35,45.42,45.42,0,0,0,2.94,4.51q1.77,2.43,4.14,5.2.79.89,1.89,2.21L57,57.67q1.84,2.43,3.57,5.11T64,68.56a38.15,38.15,0,0,1,3.92,9.32q-9.76.17-12.73,1a10.32,10.32,0,0,0-1.42.51,31.28,31.28,0,0,1-9.16,2,24.59,24.59,0,0,0-3.35-9.93,61.35,61.35,0,0,0-4-6.15q-.6-.92-1.62-2.23L33.26,60q-.85-.83-2-2.05l-2.76-2.85a46.86,46.86,0,0,1-7-9.26A19.86,19.86,0,0,1,19.22,40l-.44,0H17.69a93.22,93.22,0,0,1-17-2.15,13.47,13.47,0,0,1-.28-5.26A75.28,75.28,0,0,0,14.19,34a59.47,59.47,0,0,0,10-.75q.74-.14,2.55-.61t4.67-1.27a38.81,38.81,0,0,1,10.89-1.13A80.91,80.91,0,0,1,59.66,32.5Z"/><path class="cls-1" d="M147.81,65.66q.33.56.57,1t.42.84q2.14,4.61-7.91,6.67-2.48.5-4.7,1.05l-4.38,1.11q-1.77.48-3.22.93t-2.6.9q-.39.17-1,.39l-1.42.54a31.82,31.82,0,0,1-8.16.76,42.53,42.53,0,0,1-15.59-2.75q-7.41-2.9-10.21-7.81-.13-.23-.36-.68t-.48-1q-.24-.51-.49-1l-.37-.7a34,34,0,0,0-2.27-3.38q-1.44-1.93-3.54-4.43-5.76-6.88-6.51-7.87a25.11,25.11,0,0,1-1.79-2.64q-.31-.54-.68-1.36t-.86-2q-1.18-2.92.61-4.61,1.46-1.4,5.93-2.58,2.49-.69,6.15-1.6t8.79-2.08L95,33.18l1.69-.32a33.79,33.79,0,0,1,8-1.34,33.34,33.34,0,0,1,15.06,3.82,25.63,25.63,0,0,1,9.71,8.08q1.09,1.69,2.26,3.18t2.41,2.84l3.74,4,3.74,4q2.09,2.39,3.66,4.42A37,37,0,0,1,147.81,65.66Zm-25.27-1.19q-2.12-3.64-8.57-10.39t-8.52-10.43q-.31-.54-.79-1.61-.21-.54-.4-.93t-.34-.68q-1-1.67-4.11-1.69A5.51,5.51,0,0,0,96,39.92a2.31,2.31,0,0,0-.8,2.61q.31.88.73,1.77t.94,1.8a34.66,34.66,0,0,0,3.1,4.33q2.07,2.55,5.26,6t5.27,6a34.62,34.62,0,0,1,3.11,4.33,7.36,7.36,0,0,1,.44,1q.25.64.53,1.34t.52,1.33a7,7,0,0,0,.43,1,3.54,3.54,0,0,0,1.65,1.3,5.82,5.82,0,0,0,2.45.57,5.46,5.46,0,0,0,4.13-1.94Q125.48,69.51,122.54,64.46Z"/><path class="cls-1" d="M212.41,55.66q1.83,3-.63,4.73a8.79,8.79,0,0,1-3.29,1.12q-2.87.55-5,.93t-3.85.57q-1.62.13-3.89.42l-5.38.69-4.58.85.89,1.4a51.58,51.58,0,0,1,3.12,5.89q1.48,3.27,2.94,7.37a72.29,72.29,0,0,1-10.82.75,123.88,123.88,0,0,1-14.36-.93l-1.63-2.94q-1-1.82-2.38-4.46-1.26-2.44-2.27-4.26t-1.81-3.17q-.38-.64-.83-1.36l-1-1.53q-.95-1.43-2.77-3.67t-4.56-5.39q-2.59-3-4.36-5.22a37.33,37.33,0,0,1-2.73-3.87q-3.33-5.61-3.07-10a94.22,94.22,0,0,0,10,.58q5,0,19.57-.84,1.43-.1,2.71-.13t2.39,0a52.09,52.09,0,0,1,14.79,2.2,28.44,28.44,0,0,1,11.86,6.56,25.29,25.29,0,0,1,2.78,3.59q1.87,3,2.35,3.58a31.49,31.49,0,0,0,3.83,4.34A11.16,11.16,0,0,1,212.41,55.66Zm-23.84.42a3.18,3.18,0,0,0-.52-.61q-2.24-2.18-3.86-3.85a40.07,40.07,0,0,1-2.67-3q-.79-1-1.52-2t-1.47-2.26l-.34-.56q-.22-.36-.46-.84t-.44-.81l-.35-.59a4.87,4.87,0,0,0-2.09-1.69,7.15,7.15,0,0,0-3.15-.76,25.85,25.85,0,0,0-2.78.17l-1.81.2-1,.09a17.72,17.72,0,0,0,.94,2.36q.57,1.19,1.33,2.44a48.55,48.55,0,0,0,4.87,6.44q3.24,3.73,8.21,8.6,1-.11,2.27-.33a26.8,26.8,0,0,0,3.86-.82Q189.45,57.53,188.57,56.08Z"/><path class="cls-1" d="M59.66,27.5l.69,2q.46,1.36,1.14,3.49a80.38,80.38,0,0,0-15.92-1.79H44.29l-1.4,0a17.46,17.46,0,0,0,.9,3,27.38,27.38,0,0,0,1.61,3.35,45.42,45.42,0,0,0,2.94,4.51q1.77,2.43,4.14,5.2.79.89,1.89,2.21L57,52.67q1.84,2.43,3.57,5.11T64,63.56a38.15,38.15,0,0,1,3.92,9.32q-9.76.17-12.73,1a10.32,10.32,0,0,0-1.42.51,31.28,31.28,0,0,1-9.16,2,24.59,24.59,0,0,0-3.35-9.93,61.35,61.35,0,0,0-4-6.15q-.6-.92-1.62-2.23L33.26,55q-.85-.83-2-2.05l-2.76-2.85a46.86,46.86,0,0,1-7-9.26A19.86,19.86,0,0,1,19.22,35l-.44,0H17.69a93.22,93.22,0,0,1-17-2.15,13.47,13.47,0,0,1-.28-5.26A75.28,75.28,0,0,0,14.19,29a59.47,59.47,0,0,0,10-.75q.74-.14,2.55-.61t4.67-1.27a38.81,38.81,0,0,1,10.89-1.13A80.91,80.91,0,0,1,59.66,27.5Z"/><path class="cls-1" d="M147.81,60.66q.33.56.57,1t.42.84q2.14,4.61-7.91,6.67-2.48.5-4.7,1.05l-4.38,1.11q-1.77.48-3.22.93t-2.6.9q-.39.17-1,.39l-1.42.54a31.82,31.82,0,0,1-8.16.76,42.53,42.53,0,0,1-15.59-2.75q-7.41-2.9-10.21-7.81-.13-.23-.36-.68t-.48-1q-.24-.51-.49-1l-.37-.7a34,34,0,0,0-2.27-3.38q-1.44-1.93-3.54-4.43-5.76-6.88-6.51-7.87a25.11,25.11,0,0,1-1.79-2.64q-.31-.54-.68-1.36t-.86-2q-1.18-2.92.61-4.61,1.46-1.4,5.93-2.58,2.49-.69,6.15-1.6t8.79-2.08L95,28.18l1.69-.32a33.79,33.79,0,0,1,8-1.34,33.34,33.34,0,0,1,15.06,3.82,25.63,25.63,0,0,1,9.71,8.08q1.09,1.69,2.26,3.18t2.41,2.84l3.74,4,3.74,4q2.09,2.39,3.66,4.42A37,37,0,0,1,147.81,60.66Zm-25.27-1.19q-2.12-3.64-8.57-10.39t-8.52-10.43q-.31-.54-.79-1.61-.21-.54-.4-.93t-.34-.68q-1-1.67-4.11-1.69A5.51,5.51,0,0,0,96,34.92a2.31,2.31,0,0,0-.8,2.61q.31.88.73,1.77t.94,1.8a34.66,34.66,0,0,0,3.1,4.33q2.07,2.55,5.26,6t5.27,6a34.62,34.62,0,0,1,3.11,4.33,7.36,7.36,0,0,1,.44,1q.25.64.53,1.34t.52,1.33a7,7,0,0,0,.43,1,3.54,3.54,0,0,0,1.65,1.3,5.82,5.82,0,0,0,2.45.57,5.46,5.46,0,0,0,4.13-1.94Q125.48,64.51,122.54,59.46Z"/><path class="cls-1" d="M212.41,50.66q1.83,3-.63,4.73a8.79,8.79,0,0,1-3.29,1.12q-2.87.55-5,.93t-3.85.57q-1.62.13-3.89.42l-5.38.69-4.58.85.89,1.4a51.58,51.58,0,0,1,3.12,5.89q1.48,3.27,2.94,7.37a72.29,72.29,0,0,1-10.82.75,123.88,123.88,0,0,1-14.36-.93l-1.63-2.94q-1-1.82-2.38-4.46-1.26-2.44-2.27-4.26t-1.81-3.17q-.38-.64-.83-1.36l-1-1.53q-.95-1.43-2.77-3.67t-4.56-5.39q-2.59-3-4.36-5.22a37.33,37.33,0,0,1-2.73-3.87q-3.33-5.61-3.07-10a94.22,94.22,0,0,0,10,.58q5,0,19.57-.84,1.43-.1,2.71-.13t2.39,0a52.09,52.09,0,0,1,14.79,2.2,28.44,28.44,0,0,1,11.86,6.56,25.29,25.29,0,0,1,2.78,3.59q1.87,3,2.35,3.58a31.49,31.49,0,0,0,3.83,4.34A11.16,11.16,0,0,1,212.41,50.66Zm-23.84.42a3.18,3.18,0,0,0-.52-.61q-2.24-2.18-3.86-3.85a40.07,40.07,0,0,1-2.67-3q-.79-1-1.52-2t-1.47-2.26l-.34-.56q-.22-.36-.46-.84t-.44-.81l-.35-.59a4.87,4.87,0,0,0-2.09-1.69,7.15,7.15,0,0,0-3.15-.76,25.85,25.85,0,0,0-2.78.17l-1.81.2-1,.09a17.72,17.72,0,0,0,.94,2.36q.57,1.19,1.33,2.44a48.55,48.55,0,0,0,4.87,6.44q3.24,3.73,8.21,8.6,1-.11,2.27-.33a26.8,26.8,0,0,0,3.86-.82Q189.45,52.53,188.57,51.08Z"/><path class="cls-1" d="M59.66,22.5l.69,2q.46,1.36,1.14,3.49a80.38,80.38,0,0,0-15.92-1.79H44.29l-1.4,0a17.46,17.46,0,0,0,.9,3,27.38,27.38,0,0,0,1.61,3.35,45.42,45.42,0,0,0,2.94,4.51q1.77,2.43,4.14,5.2.79.89,1.89,2.21L57,47.67q1.84,2.43,3.57,5.11T64,58.56a38.15,38.15,0,0,1,3.92,9.32q-9.76.17-12.73,1a10.32,10.32,0,0,0-1.42.51,31.28,31.28,0,0,1-9.16,2,24.59,24.59,0,0,0-3.35-9.93,61.35,61.35,0,0,0-4-6.15q-.6-.92-1.62-2.23L33.26,50q-.85-.83-2-2.05l-2.76-2.85a46.86,46.86,0,0,1-7-9.26A19.86,19.86,0,0,1,19.22,30l-.44,0H17.69a93.22,93.22,0,0,1-17-2.15,13.47,13.47,0,0,1-.28-5.26A75.28,75.28,0,0,0,14.19,24a59.47,59.47,0,0,0,10-.75q.74-.14,2.55-.61t4.67-1.27a38.81,38.81,0,0,1,10.89-1.13A80.91,80.91,0,0,1,59.66,22.5Z"/><path class="cls-1" d="M147.81,55.66q.33.56.57,1t.42.84q2.14,4.61-7.91,6.67-2.48.5-4.7,1.05l-4.38,1.11q-1.77.48-3.22.93t-2.6.9q-.39.17-1,.39l-1.42.54a31.82,31.82,0,0,1-8.16.76,42.53,42.53,0,0,1-15.59-2.75q-7.41-2.9-10.21-7.81-.13-.23-.36-.68t-.48-1q-.24-.51-.49-1l-.37-.7a34,34,0,0,0-2.27-3.38q-1.44-1.93-3.54-4.43-5.76-6.88-6.51-7.87a25.11,25.11,0,0,1-1.79-2.64q-.31-.54-.68-1.36t-.86-2q-1.18-2.92.61-4.61,1.46-1.4,5.93-2.58,2.49-.69,6.15-1.6t8.79-2.08L95,23.18l1.69-.32a33.79,33.79,0,0,1,8-1.34,33.34,33.34,0,0,1,15.06,3.82,25.63,25.63,0,0,1,9.71,8.08q1.09,1.69,2.26,3.18t2.41,2.84l3.74,4,3.74,4q2.09,2.39,3.66,4.42A37,37,0,0,1,147.81,55.66Zm-25.27-1.19q-2.12-3.64-8.57-10.39t-8.52-10.43q-.31-.54-.79-1.61-.21-.54-.4-.93t-.34-.68q-1-1.67-4.11-1.69A5.51,5.51,0,0,0,96,29.92a2.31,2.31,0,0,0-.8,2.61q.31.88.73,1.77t.94,1.8a34.66,34.66,0,0,0,3.1,4.33q2.07,2.55,5.26,6t5.27,6a34.62,34.62,0,0,1,3.11,4.33,7.36,7.36,0,0,1,.44,1q.25.64.53,1.34t.52,1.33a7,7,0,0,0,.43,1,3.54,3.54,0,0,0,1.65,1.3,5.82,5.82,0,0,0,2.45.57,5.46,5.46,0,0,0,4.13-1.94Q125.48,59.51,122.54,54.46Z"/><path class="cls-1" d="M212.41,45.66q1.83,3-.63,4.73a8.79,8.79,0,0,1-3.29,1.12q-2.87.55-5,.93t-3.85.57q-1.62.13-3.89.42l-5.38.69-4.58.85.89,1.4a51.58,51.58,0,0,1,3.12,5.89q1.48,3.27,2.94,7.37a72.29,72.29,0,0,1-10.82.75,123.88,123.88,0,0,1-14.36-.93l-1.63-2.94q-1-1.82-2.38-4.46-1.26-2.44-2.27-4.26t-1.81-3.17q-.38-.64-.83-1.36l-1-1.53q-.95-1.43-2.77-3.67t-4.56-5.39q-2.59-3-4.36-5.22a37.33,37.33,0,0,1-2.73-3.87q-3.33-5.61-3.07-10a94.22,94.22,0,0,0,10,.58q5,0,19.57-.84,1.43-.1,2.71-.13t2.39,0a52.09,52.09,0,0,1,14.79,2.2,28.44,28.44,0,0,1,11.86,6.56,25.29,25.29,0,0,1,2.78,3.59q1.87,3,2.35,3.58a31.49,31.49,0,0,0,3.83,4.34A11.16,11.16,0,0,1,212.41,45.66Zm-23.84.42a3.18,3.18,0,0,0-.52-.61q-2.24-2.18-3.86-3.85a40.07,40.07,0,0,1-2.67-3q-.79-1-1.52-2t-1.47-2.26l-.34-.56q-.22-.36-.46-.84t-.44-.81l-.35-.59a4.87,4.87,0,0,0-2.09-1.69,7.15,7.15,0,0,0-3.15-.76,25.85,25.85,0,0,0-2.78.17l-1.81.2-1,.09a17.72,17.72,0,0,0,.94,2.36q.57,1.19,1.33,2.44a48.55,48.55,0,0,0,4.87,6.44q3.24,3.73,8.21,8.6,1-.11,2.27-.33a26.8,26.8,0,0,0,3.86-.82Q189.45,47.53,188.57,46.08Z"/><path class="cls-1" d="M59.66,17.5l.69,2q.46,1.36,1.14,3.49a80.38,80.38,0,0,0-15.92-1.79H44.29l-1.4,0a17.46,17.46,0,0,0,.9,3,27.38,27.38,0,0,0,1.61,3.35,45.42,45.42,0,0,0,2.94,4.51q1.77,2.43,4.14,5.2.79.89,1.89,2.21L57,42.67q1.84,2.43,3.57,5.11T64,53.56a38.15,38.15,0,0,1,3.92,9.32q-9.76.17-12.73,1a10.32,10.32,0,0,0-1.42.51,31.28,31.28,0,0,1-9.16,2,24.59,24.59,0,0,0-3.35-9.93,61.35,61.35,0,0,0-4-6.15q-.6-.92-1.62-2.23L33.26,45q-.85-.83-2-2.05l-2.76-2.85a46.86,46.86,0,0,1-7-9.26A19.86,19.86,0,0,1,19.22,25l-.44,0H17.69a93.22,93.22,0,0,1-17-2.15,13.47,13.47,0,0,1-.28-5.26A75.28,75.28,0,0,0,14.19,19a59.47,59.47,0,0,0,10-.75q.74-.14,2.55-.61t4.67-1.27a38.81,38.81,0,0,1,10.89-1.13A80.91,80.91,0,0,1,59.66,17.5Z"/><path class="cls-1" d="M147.81,50.66q.33.56.57,1t.42.84q2.14,4.61-7.91,6.67-2.48.5-4.7,1.05l-4.38,1.11q-1.77.48-3.22.93t-2.6.9q-.39.17-1,.39l-1.42.54a31.82,31.82,0,0,1-8.16.76,42.53,42.53,0,0,1-15.59-2.75q-7.41-2.9-10.21-7.81-.13-.23-.36-.68t-.48-1q-.24-.51-.49-1l-.37-.7a34,34,0,0,0-2.27-3.38q-1.44-1.93-3.54-4.43-5.76-6.88-6.51-7.87a25.11,25.11,0,0,1-1.79-2.64q-.31-.54-.68-1.36t-.86-2q-1.18-2.92.61-4.61,1.46-1.4,5.93-2.58,2.49-.69,6.15-1.6t8.79-2.08L95,18.18l1.69-.32a33.79,33.79,0,0,1,8-1.34,33.34,33.34,0,0,1,15.06,3.82,25.63,25.63,0,0,1,9.71,8.08q1.09,1.69,2.26,3.18t2.41,2.84l3.74,4,3.74,4q2.09,2.39,3.66,4.42A37,37,0,0,1,147.81,50.66Zm-25.27-1.19q-2.12-3.64-8.57-10.39t-8.52-10.43q-.31-.54-.79-1.61-.21-.54-.4-.93t-.34-.68q-1-1.67-4.11-1.69A5.51,5.51,0,0,0,96,24.92a2.31,2.31,0,0,0-.8,2.61q.31.88.73,1.77t.94,1.8a34.66,34.66,0,0,0,3.1,4.33q2.07,2.55,5.26,6t5.27,6a34.62,34.62,0,0,1,3.11,4.33,7.36,7.36,0,0,1,.44,1q.25.64.53,1.34t.52,1.33a7,7,0,0,0,.43,1,3.54,3.54,0,0,0,1.65,1.3,5.82,5.82,0,0,0,2.45.57,5.46,5.46,0,0,0,4.13-1.94Q125.48,54.51,122.54,49.46Z"/><path class="cls-1" d="M212.41,40.66q1.83,3-.63,4.73a8.79,8.79,0,0,1-3.29,1.12q-2.87.55-5,.93t-3.85.57q-1.62.13-3.89.42l-5.38.69-4.58.85.89,1.4a51.58,51.58,0,0,1,3.12,5.89q1.48,3.27,2.94,7.37a72.29,72.29,0,0,1-10.82.75,123.88,123.88,0,0,1-14.36-.93l-1.63-2.94q-1-1.82-2.38-4.46-1.26-2.44-2.27-4.26t-1.81-3.17q-.38-.64-.83-1.36l-1-1.53q-.95-1.43-2.77-3.67t-4.56-5.39q-2.59-3-4.36-5.22a37.33,37.33,0,0,1-2.73-3.87q-3.33-5.61-3.07-10a94.22,94.22,0,0,0,10,.58q5,0,19.57-.84,1.43-.1,2.71-.13t2.39,0a52.09,52.09,0,0,1,14.79,2.2,28.44,28.44,0,0,1,11.86,6.56,25.29,25.29,0,0,1,2.78,3.59q1.87,3,2.35,3.58a31.49,31.49,0,0,0,3.83,4.34A11.16,11.16,0,0,1,212.41,40.66Zm-23.84.42a3.18,3.18,0,0,0-.52-.61q-2.24-2.18-3.86-3.85a40.07,40.07,0,0,1-2.67-3q-.79-1-1.52-2t-1.47-2.26l-.34-.56q-.22-.36-.46-.84t-.44-.81l-.35-.59a4.87,4.87,0,0,0-2.09-1.69,7.15,7.15,0,0,0-3.15-.76,25.85,25.85,0,0,0-2.78.17l-1.81.2-1,.09a17.72,17.72,0,0,0,.94,2.36q.57,1.19,1.33,2.44a48.55,48.55,0,0,0,4.87,6.44q3.24,3.73,8.21,8.6,1-.11,2.27-.33a26.8,26.8,0,0,0,3.86-.82Q189.45,42.53,188.57,41.08Z"/><path class="cls-1" d="M59.66,12.5l.69,2q.46,1.36,1.14,3.49a80.38,80.38,0,0,0-15.92-1.79H44.29l-1.4,0a17.46,17.46,0,0,0,.9,3,27.38,27.38,0,0,0,1.61,3.35,45.42,45.42,0,0,0,2.94,4.51q1.77,2.43,4.14,5.2.79.89,1.89,2.21L57,37.67q1.84,2.43,3.57,5.11T64,48.56a38.15,38.15,0,0,1,3.92,9.32q-9.76.17-12.73,1a10.32,10.32,0,0,0-1.42.51,31.28,31.28,0,0,1-9.16,2,24.59,24.59,0,0,0-3.35-9.93,61.35,61.35,0,0,0-4-6.15q-.6-.92-1.62-2.23L33.26,40q-.85-.83-2-2.05l-2.76-2.85a46.86,46.86,0,0,1-7-9.26A19.86,19.86,0,0,1,19.22,20l-.44,0H17.69a93.22,93.22,0,0,1-17-2.15,13.47,13.47,0,0,1-.28-5.26A75.28,75.28,0,0,0,14.19,14a59.47,59.47,0,0,0,10-.75q.74-.14,2.55-.61t4.67-1.27a38.81,38.81,0,0,1,10.89-1.13A80.91,80.91,0,0,1,59.66,12.5Z"/><path class="cls-1" d="M147.81,45.66q.33.56.57,1t.42.84q2.14,4.61-7.91,6.67-2.48.5-4.7,1.05l-4.38,1.11q-1.77.48-3.22.93t-2.6.9q-.39.17-1,.39l-1.42.54a31.82,31.82,0,0,1-8.16.76,42.53,42.53,0,0,1-15.59-2.75q-7.41-2.9-10.21-7.81-.13-.23-.36-.68t-.48-1q-.24-.51-.49-1l-.37-.7a34,34,0,0,0-2.27-3.38q-1.44-1.93-3.54-4.43-5.76-6.88-6.51-7.87a25.11,25.11,0,0,1-1.79-2.64q-.31-.54-.68-1.36t-.86-2q-1.18-2.92.61-4.61,1.46-1.4,5.93-2.58,2.49-.69,6.15-1.6t8.79-2.08L95,13.18l1.69-.32a33.79,33.79,0,0,1,8-1.34,33.34,33.34,0,0,1,15.06,3.82,25.63,25.63,0,0,1,9.71,8.08q1.09,1.69,2.26,3.18t2.41,2.84l3.74,4,3.74,4q2.09,2.39,3.66,4.42A37,37,0,0,1,147.81,45.66Zm-25.27-1.19q-2.12-3.64-8.57-10.39t-8.52-10.43q-.31-.54-.79-1.61-.21-.54-.4-.93t-.34-.68q-1-1.67-4.11-1.69A5.51,5.51,0,0,0,96,19.92a2.31,2.31,0,0,0-.8,2.61q.31.88.73,1.77t.94,1.8a34.66,34.66,0,0,0,3.1,4.33q2.07,2.55,5.26,6t5.27,6a34.62,34.62,0,0,1,3.11,4.33,7.36,7.36,0,0,1,.44,1q.25.64.53,1.34t.52,1.33a7,7,0,0,0,.43,1,3.54,3.54,0,0,0,1.65,1.3,5.82,5.82,0,0,0,2.45.57,5.46,5.46,0,0,0,4.13-1.94Q125.48,49.51,122.54,44.46Z"/><path class="cls-1" d="M212.41,35.66q1.83,3-.63,4.73a8.79,8.79,0,0,1-3.29,1.12q-2.87.55-5,.93t-3.85.57q-1.62.13-3.89.42l-5.38.69-4.58.85.89,1.4a51.58,51.58,0,0,1,3.12,5.89q1.48,3.27,2.94,7.37a72.29,72.29,0,0,1-10.82.75,123.88,123.88,0,0,1-14.36-.93l-1.63-2.94q-1-1.82-2.38-4.46-1.26-2.44-2.27-4.26t-1.81-3.17q-.38-.64-.83-1.36l-1-1.53q-.95-1.43-2.77-3.67t-4.56-5.39q-2.59-3-4.36-5.22a37.33,37.33,0,0,1-2.73-3.87q-3.33-5.61-3.07-10a94.22,94.22,0,0,0,10,.58q5,0,19.57-.84,1.43-.1,2.71-.13t2.39,0a52.09,52.09,0,0,1,14.79,2.2,28.44,28.44,0,0,1,11.86,6.56,25.29,25.29,0,0,1,2.78,3.59q1.87,3,2.35,3.58a31.49,31.49,0,0,0,3.83,4.34A11.16,11.16,0,0,1,212.41,35.66Zm-23.84.42a3.18,3.18,0,0,0-.52-.61q-2.24-2.18-3.86-3.85a40.07,40.07,0,0,1-2.67-3q-.79-1-1.52-2t-1.47-2.26l-.34-.56q-.22-.36-.46-.84t-.44-.81l-.35-.59a4.87,4.87,0,0,0-2.09-1.69,7.15,7.15,0,0,0-3.15-.76,25.85,25.85,0,0,0-2.78.17l-1.81.2-1,.09a17.72,17.72,0,0,0,.94,2.36q.57,1.19,1.33,2.44a48.55,48.55,0,0,0,4.87,6.44q3.24,3.73,8.21,8.6,1-.11,2.27-.33a26.8,26.8,0,0,0,3.86-.82Q189.45,37.53,188.57,36.08Z"/><path class="cls-1" d="M59.66,7.5l.69,2q.46,1.36,1.14,3.49a80.38,80.38,0,0,0-15.92-1.79H44.29l-1.4,0a17.46,17.46,0,0,0,.9,3,27.38,27.38,0,0,0,1.61,3.35,45.42,45.42,0,0,0,2.94,4.51q1.77,2.43,4.14,5.2.79.89,1.89,2.21L57,32.67q1.84,2.43,3.57,5.11T64,43.56a38.15,38.15,0,0,1,3.92,9.32q-9.76.17-12.73,1a10.32,10.32,0,0,0-1.42.51,31.28,31.28,0,0,1-9.16,2,24.59,24.59,0,0,0-3.35-9.93,61.35,61.35,0,0,0-4-6.15q-.6-.92-1.62-2.23L33.26,35q-.85-.83-2-2.05l-2.76-2.85a46.86,46.86,0,0,1-7-9.26A19.86,19.86,0,0,1,19.22,15l-.44,0H17.69a93.22,93.22,0,0,1-17-2.15A13.47,13.47,0,0,1,.39,7.58,75.28,75.28,0,0,0,14.19,9a59.47,59.47,0,0,0,10-.75q.74-.14,2.55-.61t4.67-1.27A38.81,38.81,0,0,1,42.32,5.25,80.91,80.91,0,0,1,59.66,7.5Z"/><path class="cls-1" d="M147.81,40.66q.33.56.57,1t.42.84q2.14,4.61-7.91,6.67-2.48.5-4.7,1.05l-4.38,1.11q-1.77.48-3.22.93t-2.6.9q-.39.17-1,.39l-1.42.54a31.82,31.82,0,0,1-8.16.76,42.53,42.53,0,0,1-15.59-2.75q-7.41-2.9-10.21-7.81-.13-.23-.36-.68t-.48-1q-.24-.51-.49-1l-.37-.7a34,34,0,0,0-2.27-3.38q-1.44-1.93-3.54-4.43-5.76-6.88-6.51-7.87a25.11,25.11,0,0,1-1.79-2.64q-.31-.54-.68-1.36t-.86-2q-1.18-2.92.61-4.61,1.46-1.4,5.93-2.58,2.49-.69,6.15-1.6T93.75,8.4L95,8.18l1.69-.32a33.79,33.79,0,0,1,8-1.34,33.34,33.34,0,0,1,15.06,3.82,25.63,25.63,0,0,1,9.71,8.08q1.09,1.69,2.26,3.18t2.41,2.84l3.74,4,3.74,4q2.09,2.39,3.66,4.42A37,37,0,0,1,147.81,40.66Zm-25.27-1.19q-2.12-3.64-8.57-10.39t-8.52-10.43q-.31-.54-.79-1.61-.21-.54-.4-.93t-.34-.68q-1-1.67-4.11-1.69A5.51,5.51,0,0,0,96,14.92a2.31,2.31,0,0,0-.8,2.61q.31.88.73,1.77t.94,1.8a34.66,34.66,0,0,0,3.1,4.33q2.07,2.55,5.26,6t5.27,6a34.62,34.62,0,0,1,3.11,4.33,7.36,7.36,0,0,1,.44,1q.25.64.53,1.34t.52,1.33a7,7,0,0,0,.43,1,3.54,3.54,0,0,0,1.65,1.3,5.82,5.82,0,0,0,2.45.57,5.46,5.46,0,0,0,4.13-1.94Q125.48,44.51,122.54,39.46Z"/><path class="cls-1" d="M212.41,30.66q1.83,3-.63,4.73a8.79,8.79,0,0,1-3.29,1.12q-2.87.55-5,.93t-3.85.57q-1.62.13-3.89.42l-5.38.69-4.58.85.89,1.4a51.58,51.58,0,0,1,3.12,5.89q1.48,3.27,2.94,7.37a72.29,72.29,0,0,1-10.82.75,123.88,123.88,0,0,1-14.36-.93l-1.63-2.94q-1-1.82-2.38-4.46-1.26-2.44-2.27-4.26t-1.81-3.17q-.38-.64-.83-1.36l-1-1.53q-.95-1.43-2.77-3.67t-4.56-5.39q-2.59-3-4.36-5.22a37.33,37.33,0,0,1-2.73-3.87q-3.33-5.61-3.07-10a94.22,94.22,0,0,0,10,.58q5,0,19.57-.84,1.43-.1,2.71-.13t2.39,0a52.09,52.09,0,0,1,14.79,2.2,28.44,28.44,0,0,1,11.86,6.56,25.29,25.29,0,0,1,2.78,3.59q1.87,3,2.35,3.58a31.49,31.49,0,0,0,3.83,4.34A11.16,11.16,0,0,1,212.41,30.66Zm-23.84.42a3.18,3.18,0,0,0-.52-.61q-2.24-2.18-3.86-3.85a40.07,40.07,0,0,1-2.67-3q-.79-1-1.52-2t-1.47-2.26l-.34-.56q-.22-.36-.46-.84t-.44-.81l-.35-.59a4.87,4.87,0,0,0-2.09-1.69,7.15,7.15,0,0,0-3.15-.76,25.85,25.85,0,0,0-2.78.17l-1.81.2-1,.09a17.72,17.72,0,0,0,.94,2.36q.57,1.19,1.33,2.44a48.55,48.55,0,0,0,4.87,6.44q3.24,3.73,8.21,8.6,1-.11,2.27-.33a26.8,26.8,0,0,0,3.86-.82Q189.45,32.53,188.57,31.08Z"/><path class="cls-1" d="M59.66,2.5l.69,2Q60.81,5.87,61.49,8A80.38,80.38,0,0,0,45.56,6.21H44.29l-1.4,0a17.46,17.46,0,0,0,.9,3,27.38,27.38,0,0,0,1.61,3.35,45.42,45.42,0,0,0,2.94,4.51q1.77,2.43,4.14,5.2.79.89,1.89,2.21L57,27.67q1.84,2.43,3.57,5.11T64,38.56a38.15,38.15,0,0,1,3.92,9.32q-9.76.17-12.73,1a10.32,10.32,0,0,0-1.42.51,31.28,31.28,0,0,1-9.16,2,24.59,24.59,0,0,0-3.35-9.93,61.35,61.35,0,0,0-4-6.15q-.6-.92-1.62-2.23L33.26,30q-.85-.83-2-2.05l-2.76-2.85a46.86,46.86,0,0,1-7-9.26A19.86,19.86,0,0,1,19.22,10l-.44,0H17.69a93.22,93.22,0,0,1-17-2.15A13.47,13.47,0,0,1,.39,2.58,75.28,75.28,0,0,0,14.19,4a59.47,59.47,0,0,0,10-.75q.74-.14,2.55-.61t4.67-1.27A38.81,38.81,0,0,1,42.32.25,80.91,80.91,0,0,1,59.66,2.5Z"/><path class="cls-1" d="M147.81,35.66q.33.56.57,1t.42.84q2.14,4.61-7.91,6.67-2.48.5-4.7,1.05l-4.38,1.11q-1.77.48-3.22.93t-2.6.9q-.39.17-1,.39l-1.42.54a31.82,31.82,0,0,1-8.16.76,42.53,42.53,0,0,1-15.59-2.75q-7.41-2.9-10.21-7.81-.13-.23-.36-.68t-.48-1q-.24-.51-.49-1l-.37-.7a34,34,0,0,0-2.27-3.38q-1.44-1.93-3.54-4.43-5.76-6.88-6.51-7.87a25.11,25.11,0,0,1-1.79-2.64q-.31-.54-.68-1.36t-.86-2q-1.18-2.92.61-4.61,1.46-1.4,5.93-2.58Q81.3,6.4,85,5.48T93.75,3.4L95,3.18l1.69-.32a33.79,33.79,0,0,1,8-1.34,33.34,33.34,0,0,1,15.06,3.82,25.63,25.63,0,0,1,9.71,8.08q1.09,1.69,2.26,3.18t2.41,2.84l3.74,4,3.74,4q2.09,2.39,3.66,4.42A37,37,0,0,1,147.81,35.66Zm-25.27-1.19q-2.12-3.64-8.57-10.39t-8.52-10.43q-.31-.54-.79-1.61-.21-.54-.4-.93t-.34-.68q-1-1.67-4.11-1.69A5.51,5.51,0,0,0,96,9.92a2.31,2.31,0,0,0-.8,2.61q.31.88.73,1.77t.94,1.8a34.66,34.66,0,0,0,3.1,4.33q2.07,2.55,5.26,6t5.27,6a34.62,34.62,0,0,1,3.11,4.33,7.36,7.36,0,0,1,.44,1q.25.64.53,1.34t.52,1.33a7,7,0,0,0,.43,1,3.54,3.54,0,0,0,1.65,1.3,5.82,5.82,0,0,0,2.45.57,5.46,5.46,0,0,0,4.13-1.94Q125.48,39.51,122.54,34.46Z"/><path class="cls-1" d="M212.41,25.66q1.83,3-.63,4.73a8.79,8.79,0,0,1-3.29,1.12q-2.87.55-5,.93t-3.85.57q-1.62.13-3.89.42l-5.38.69-4.58.85.89,1.4a51.58,51.58,0,0,1,3.12,5.89q1.48,3.27,2.94,7.37a72.29,72.29,0,0,1-10.82.75,123.88,123.88,0,0,1-14.36-.93l-1.63-2.94q-1-1.82-2.38-4.46-1.26-2.44-2.27-4.26t-1.81-3.17q-.38-.64-.83-1.36l-1-1.53q-.95-1.43-2.77-3.67t-4.56-5.39q-2.59-3-4.36-5.22a37.33,37.33,0,0,1-2.73-3.87q-3.33-5.61-3.07-10a94.22,94.22,0,0,0,10,.58q5,0,19.57-.84,1.43-.1,2.71-.13t2.39,0a52.09,52.09,0,0,1,14.79,2.2,28.44,28.44,0,0,1,11.86,6.56,25.29,25.29,0,0,1,2.78,3.59q1.87,3,2.35,3.58a31.49,31.49,0,0,0,3.83,4.34A11.16,11.16,0,0,1,212.41,25.66Zm-23.84.42a3.18,3.18,0,0,0-.52-.61q-2.24-2.18-3.86-3.85a40.07,40.07,0,0,1-2.67-3q-.79-1-1.52-2t-1.47-2.26l-.34-.56q-.22-.36-.46-.84t-.44-.81l-.35-.59a4.87,4.87,0,0,0-2.09-1.69,7.15,7.15,0,0,0-3.15-.76,25.85,25.85,0,0,0-2.78.17l-1.81.2-1,.09a17.72,17.72,0,0,0,.94,2.36q.57,1.19,1.33,2.44a48.55,48.55,0,0,0,4.87,6.44q3.24,3.73,8.21,8.6,1-.11,2.27-.33a26.8,26.8,0,0,0,3.86-.82Q189.45,27.53,188.57,26.08Z"/></g></g></svg>